<?xml version="1.0" encoding="UTF-8" standalone="no"?>
<!-- Created with Inkscape (http://www.inkscape.org/) -->

<svg
   width="449.64825mm"
   height="108.43085mm"
   viewBox="0 0 449.64825 108.43085"
   version="1.1"
   id="svg5"
   xml:space="preserve"
   xmlns="http://www.w3.org/2000/svg"
   xmlns:svg="http://www.w3.org/2000/svg"><defs
     id="defs2">
	
	

		
		
	</defs><g
     id="layer1"
     transform="translate(119.81439,-94.146952)"><g
       id="g1912"
       transform="matrix(0.14457446,0,0,0.14457446,-119.81439,94.146952)"
       style="stroke-width:1.83008">
	<path
   class="st0"
   d="m 2180.28,532.51 c 0,151.87 56.25,217.49 164.99,217.49 66.54,0 112.47,-22.51 137.78,-59.07 l 7.5,49.68 h 119.04 v -431.2 c -47.8,-14.98 -102.16,-28.1 -204.34,-28.1 -145.29,0 -224.97,89.03 -224.97,251.2 z m 279.74,70.31 c -13.13,14.99 -34.7,30.93 -70.32,30.93 -39.35,0 -60.91,-36.55 -60.91,-106.86 0,-86.22 23.42,-129.35 70.3,-129.35 27.18,0 41.24,1.87 60.93,6.56 z"
   id="path1902"
   style="stroke-width:1.83008" />
	<path
   class="st0"
   d="m 1635.13,595.32 20.63,114.34 c -28.12,18.78 -95.61,40.34 -165.91,40.34 -146.22,0 -221.22,-78.76 -221.22,-232.47 0,-152.81 79.67,-236.22 224.97,-236.22 71.24,0 113.41,13.12 152.77,29.98 l -20.61,122.81 c -27.18,-17.83 -58.1,-28.14 -96.54,-28.14 -71.24,0 -108.74,40.32 -108.74,105.93 0,68.42 37.5,113.43 109.68,113.43 40.3,0 72.18,-13.11 104.97,-30 z"
   id="path1904"
   style="stroke-width:1.83008" />
	<path
   class="st0"
   d="M 2128.72,443.47 V 740.61 H 1982.51 V 463.17 c 0,-42.2 -24.39,-65.63 -67.49,-65.63 -26.25,0 -58.12,15.92 -70.32,30.92 V 740.61 H 1698.48 V 122.88 h 149.97 v 196.86 c 30,-24.38 69.37,-38.43 129.36,-38.43 102.18,0 150.91,53.41 150.91,162.16 z"
   id="path1906"
   style="stroke-width:1.83008" />
	<path
   class="st0"
   d="M 3110.15,443.47 V 740.61 H 2964.86 V 463.17 c 0,-42.2 -24.38,-65.63 -67.49,-65.63 -26.26,0 -58.11,15.92 -70.3,30.92 V 740.61 H 2680.85 V 290.67 h 118.1 l 9.37,49.69 c 31.88,-35.63 75.93,-59.05 151.85,-59.05 101.24,0 149.98,53.41 149.98,162.16 z"
   id="path1908"
   style="stroke-width:1.83008" />
	<path
   class="st0"
   d="m 1070.84,290.67 h 146.24 v 449.94 h -118.1 l -9.39,-49.68 C 1057.72,726.55 1013.67,750 937.73,750 835.57,750 786.83,696.55 786.83,587.81 V 290.67 h 146.23 v 277.48 c 0,42.17 24.36,65.6 67.49,65.6 26.25,0 58.11,-15.94 70.29,-30.93 z"
   id="path1910"
   style="stroke-width:1.83008" />
</g><g
       id="g3210"><path
         id="path1914"
         style="stroke-width:0.264583"
         class="st0"
         d="m -34.64388,113.66438 c -4.510719,0 -8.443145,1.20442 -11.991,3.51038 0,0 -5.145636,3.49425 -12.644706,9.97407 l -22.938135,19.18952 c -1.763806,1.48912 -3.935245,2.44172 -6.909139,2.44172 h -28.87886 c -0.80962,0 -0.54952,0.67398 -0.41651,1.08313 2.03272,6.2326 7.46291,11.79257 16.94987,11.79257 l -6.77478,6.91069 c -0.28915,0.26889 -0.28882,0.94981 0.40514,0.94981 h 25.755538 c 18.625509,0 30.062904,-8.09469 37.596671,-19.44378 0.627454,-0.96576 1.245155,-1.95296 1.820561,-2.95485 0.2718,0.13011 0.314903,0.43214 0.174666,0.70538 -1.904044,4.61336 -6.641501,13.96468 -15.310176,19.51922 -2.986906,1.76236 -3.932437,2.30302 -8.132321,3.93671 -0.310834,0.11711 -0.416612,0.40486 -0.289388,0.80822 l 10.417969,29.14758 h 5.968111 l -9.562207,-26.70432 c 6.212358,0 21.059013,-1.65426 29.095899,-14.63993 8.042669,-12.98567 10.845849,-33.61759 10.845849,-33.61759 l 8.820651,-4.06383 c 0.283365,-0.14746 0.391791,-0.49736 0.242879,-0.77928 -0.101202,-0.19229 -0.302592,-0.31243 -0.520899,-0.30954 h -9.485209 c -1.489114,-2.84378 -6.653214,-7.45588 -14.240474,-7.45588 z m 1.735811,7.47034 c 0.763429,0.0273 1.526165,0.24082 2.217953,0.64906 -1.419721,-0.37445 -2.875484,0.47422 -3.249931,1.89394 -0.374448,1.41972 0.474221,2.87548 1.893941,3.24993 1.421166,0.37444 2.877034,-0.47422 3.251481,-1.89394 0.05783,-0.22265 0.08827,-0.45226 0.08682,-0.68213 l -0.03927,-0.39636 c 1.048164,2.38693 -0.03732,5.16996 -2.425691,6.21668 -2.385477,1.04672 -5.171507,-0.0387 -6.218225,-2.42569 -0.782147,-1.78116 -0.388707,-3.86343 0.989087,-5.23689 v -0.003 c 0.947865,-0.94606 2.221462,-1.4175 3.493843,-1.37201 z M -46.970776,177.384 c -1.833203,0.46553 -3.692281,0.82559 -5.564519,1.08004 l 8.129737,22.77484 h 5.96501 z m -5.564519,1.08004 -0.0016,-0.004 -0.0026,0.004 z" /><path
         class="st0"
         d="m -84.93291,142.80927 c -1.359,1.2231 -2.981125,1.48912 -4.88228,1.48912 h -10.44117 c 10.707187,-25.8904 19.935375,-44.998804 22.375792,-50.151438 h 28.874411 c 1.217317,2.437525 3.766165,7.937138 7.421007,15.937888 -5.907312,1.67128 -10.266232,5.17577 -17.428451,11.0426 -1.490563,-3.65629 -2.871249,-7.05668 -4.371932,-10.44984 -2.973896,6.37573 -5.819122,13.97312 -8.531338,21.42159 l -13.014593,10.71008 m -34.882926,58.42977 h 25.75594 l 8.714948,-27.2494 H -110.4156 c -2.98547,8.13232 -6.14586,17.08003 -9.39879,27.2494 m 96.016236,-44.05762 c -4.408075,9.09951 -8.584831,13.6724 -18.327704,18.3971 l 9.128431,25.66196 H -7.5277442 C -12.809049,185.51801 -18.511066,170.73383 -23.798154,157.18142"
         id="path1920"
         style="stroke-width:0.264583" /></g></g><style
     type="text/css"
     id="style1900">
	.st0{fill:#E2000F;}
	.st1{fill:#FFFFFF;}
</style></svg>
