<?xml version="1.0" encoding="UTF-8" standalone="no"?>
<svg
   xmlns:dc="http://purl.org/dc/elements/1.1/"
   xmlns:cc="http://creativecommons.org/ns#"
   xmlns:rdf="http://www.w3.org/1999/02/22-rdf-syntax-ns#"
   xmlns:svg="http://www.w3.org/2000/svg"
   xmlns="http://www.w3.org/2000/svg"
   xmlns:sodipodi="http://sodipodi.sourceforge.net/DTD/sodipodi-0.dtd"
   xmlns:inkscape="http://www.inkscape.org/namespaces/inkscape"
   version="1.1"
   id="Layer_1"
   x="0px"
   y="0px"
   width="1000"
   height="158.494"
   viewBox="0 0 1000 158.49401"
   enable-background="new 0 0 708.661 827.717"
   xml:space="preserve"
   inkscape:version="0.91 r13725"
   sodipodi:docname="Carrefour 2009 (Horizontal).svg"><metadata
   id="metadata13"><rdf:RDF><cc:Work
       rdf:about=""><dc:format>image/svg+xml</dc:format><dc:type
         rdf:resource="http://purl.org/dc/dcmitype/StillImage" /><dc:title></dc:title></cc:Work></rdf:RDF></metadata><defs
   id="defs11" /><sodipodi:namedview
   pagecolor="#ffffff"
   bordercolor="#666666"
   borderopacity="1"
   objecttolerance="10"
   gridtolerance="10"
   guidetolerance="10"
   inkscape:pageopacity="0"
   inkscape:pageshadow="2"
   inkscape:window-width="1366"
   inkscape:window-height="705"
   id="namedview9"
   showgrid="false"
   inkscape:zoom="0.5"
   inkscape:cx="565.35398"
   inkscape:cy="54.651803"
   inkscape:window-x="-8"
   inkscape:window-y="-8"
   inkscape:window-maximized="1"
   inkscape:current-layer="Layer_1" />
<path
   style="fill:#004e9f;fill-opacity:1"
   inkscape:connector-curvature="0"
   d="m 142.29217,89.0672 c -9.0635,0 -15.68299,4.57009 -15.68299,13.31579 0,8.19216 5.75371,13.90205 14.38976,13.90205 5.75919,0 11.51839,-3.20018 15.11307,-7.77577 l 0,-11.66633 c 0,-3.89062 -5.04134,-7.77574 -13.81984,-7.77574 M 338.1925,87.45071 c 0.42744,15.35417 10.21968,26.46158 27.05889,26.46158 10.22516,0 18.00093,-5.54 20.72981,-9.01962 1.29322,0.97538 2.59739,2.433 2.59739,5.82494 0,7.63876 -9.21689,18.20367 -30.66455,18.20367 -21.58467,0 -39.15812,-17.21183 -39.15812,-39.7116 0,-24.77388 16.26928,-42.47887 40.31433,-42.47887 21.85864,0 31.94684,16.09947 31.94684,29.80974 0,4.04402 -0.86581,7.78672 -2.59742,10.91016 l -50.22717,0 z m 30.52209,-9.92383 c 3.45224,0 3.60019,-2.022 3.60019,-4.72896 -0.14782,-8.07715 -6.49349,-15.55699 -16.12686,-15.55699 -12.52119,0 -17.42002,10.49368 -17.84747,20.28595 l 30.37414,0 z m 203.08429,8.47168 c 0,18.7626 2.60286,28.32473 14.70209,28.32473 13.21714,0 16.83376,-11.80332 16.83376,-22.52719 l 0,-20.4668 c 0,-7.03048 -3.33169,-9.75941 -10.94853,-8.93741 -3.1618,-7.90178 7.33191,-12.93217 13.25544,-14.08839 1.85218,-0.28496 3.58924,-0.5699 5.18934,-0.5699 8.33468,0 11.53483,5.20026 11.53483,12.97051 0,2.85494 -0.27949,8.06073 -0.27949,29.59604 0,9.1073 -0.14782,13.91303 -0.14782,15.41992 0,7.09083 3.28239,10.70196 10.89373,9.87451 3.11795,7.91825 -7.30991,11.67183 -13.26093,12.77322 -1.82472,0.27399 -3.48509,0.55348 -4.85503,0.55348 -7.91275,0 -9.51836,-5.13449 -11.11293,-12.49378 -1.11783,1.38085 -2.14804,2.50968 -4.29607,4.58103 -5.18385,4.85506 -11.94586,7.77574 -19.58456,7.77574 -8.35111,0 -15.40356,-3.20559 -19.86955,-8.46615 -6.90441,-8.19222 -6.90441,-18.75166 -6.90441,-34.17161 l 0,-14.81172 c 0,-7.03047 -3.31525,-9.7594 -10.93756,-8.9374 -3.1673,-7.90178 7.34835,-12.93217 13.24449,-14.08841 1.8686,-0.28497 3.58919,-0.5699 5.17838,-0.5699 8.34014,0 11.51285,5.20023 11.51285,12.97053 l -0.14781,25.28895 z m -36.40736,1.61104 c 0,-24.34098 -16.83923,-40.88426 -40.16093,-40.88426 -21.58467,0 -40.73631,16.54328 -40.73631,40.88426 0,24.64784 17.98995,41.1692 40.01845,41.1692 23.31079,0 40.87879,-16.79535 40.87879,-41.1692 m -361.28406,21.44769 c 0,6.20852 4.02214,8.18669 11.08002,9.16209 -0.43291,7.21134 -5.47428,10.00596 -11.37042,10.55942 -6.62503,0.55346 -13.10202,-2.51518 -15.68847,-9.43059 -3.03031,2.75082 -11.9513,9.70459 -23.61216,9.70459 -15.9734,0 -27.92473,-10.70191 -27.92473,-25.27798 0,-15.40901 13.38701,-24.53822 32.24274,-24.53822 6.48801,0 13.23905,1.34797 17.27213,3.43577 l 0,-10.31832 c 0,-9.2443 -4.03308,-15.11312 -14.53225,-15.11312 -2.16454,0 -6.90997,0.56993 -10.6581,1.99459 0.43291,1.46312 0.72885,3.02484 0.72885,4.46054 0,5.64412 -3.60019,10.21971 -9.64434,10.21971 -5.3318,0 -9.36488,-4.29612 -9.36488,-9.78132 0,-10.07725 12.6746,-17.41463 30.23714,-17.41463 13.9624,0 22.46144,3.30977 26.92193,9.05802 4.02214,5.05781 4.31254,12.83355 4.31254,24.05599 l 0,29.22346 z M 514.80965,88.79323 c 0,18.70231 -8.06613,28.8672 -19.43111,28.8672 -10.07723,0 -19.86402,-10.15942 -19.86402,-32.34134 0,-17.2831 7.19487,-28.07266 18.99821,-28.07266 11.65539,-0.005 20.29692,11.95674 20.29692,31.5468 M 231.10214,60.40273 c 0.43292,4.90985 4.60847,8.35111 9.49639,8.35111 6.19208,0 9.93472,-5.49067 9.93472,-10.80602 0,-7.49081 -6.0441,-11.37043 -12.09376,-11.37043 -6.90443,0 -14.24726,5.18932 -18.4174,12.94856 l -0.29038,0.14265 c -1.29325,-6.89352 -4.60845,-12.09381 -11.51838,-12.09381 -1.58366,0 -3.3098,0.29591 -5.17837,0.86581 -5.75919,1.72614 -14.25279,6.17566 -11.08002,14.08839 8.0607,-1.55075 10.93756,1.16171 10.93756,8.19219 l 0,33.47569 c 0,6.64691 -0.86031,9.43062 -3.16729,11.38137 -2.16451,1.65493 -4.4605,2.33985 -5.90168,2.62484 -3.30975,7.21128 3.1673,9.45797 19.14617,9.45797 15.97891,0 21.44766,-2.24119 18.13794,-9.45797 -1.44118,-0.29047 -5.46881,-0.97543 -7.62779,-2.62484 -2.30699,-1.95075 -3.30978,-4.73446 -3.30978,-11.38137 l 0,-20.19284 c -0.005,-18.0009 6.61403,-22.73536 10.93207,-23.60119 m 198.06483,-11.67181 20.58185,0 c 2.44947,5.89073 -0.86031,10.64163 -5.46875,11.07999 -1.44118,0.15354 -3.02482,0.15354 -4.4605,0.15354 -3.74816,0 -7.48533,-0.29591 -10.07723,-0.29591 l 0,44.53377 c 0,6.64689 1.15072,9.43059 3.45221,11.38138 2.1645,1.65487 7.20589,2.33987 8.64705,2.6248 3.30975,7.21132 -4.47149,9.45801 -20.44487,9.45801 -15.97346,0 -22.59293,-2.24119 -19.28868,-9.45801 1.43571,-0.29043 3.74814,-0.9754 5.90167,-2.6248 2.30149,-1.95079 3.16183,-4.73449 3.16183,-11.38138 l 0,-44.83515 -12.08831,-0.42744 c -2.44944,-5.87974 0.86033,-10.06626 5.75369,-10.06626 l 6.05515,0 0,-5.75922 c 0,-11.66084 2.15351,-18.14335 5.03589,-22.46136 4.455,-6.90997 12.08826,-11.6554202 24.02861,-11.6554202 15.11854,0 27.34928,7.0524402 27.34928,17.6995202 0,4.60847 -3.16724,10.21971 -9.78677,10.21971 -4.88791,0 -9.49636,-4.17556 -9.49636,-9.34843 0,-2.16995 0.86578,-4.47147 2.01106,-5.90165 -1.72065,-2.01655 -5.32083,-3.03031 -8.77854,-3.03031 -9.93474,0 -12.08828,7.34285 -12.08828,16.55427 l 0,13.54043 z M 296.59585,60.40284 c 0.43292,4.90988 4.60848,8.35114 9.50189,8.35114 6.19208,0 9.92925,-5.4907 9.92925,-10.80603 0,-7.4908 -6.04413,-11.37043 -12.08828,-11.37043 -6.90994,0 -14.25276,5.18929 -18.41738,12.94857 l -0.29588,0.14264 c -1.28778,-6.89354 -4.603,-12.09381 -11.51296,-12.09381 -1.57814,0 -3.30975,0.29591 -5.17832,0.86578 -5.76469,1.72615 -14.25826,6.1757 -11.08549,14.08842 8.06068,-1.55077 10.93204,1.16172 10.93204,8.19219 l 0,33.47567 c 0,6.64691 -0.85481,9.43062 -3.1618,11.3814 -2.159,1.6549 -4.45497,2.33981 -5.89067,2.62481 -3.31525,7.21131 3.16726,9.458 19.1352,9.458 15.9734,0 21.45312,-2.24122 18.1379,-9.458 -1.4357,-0.29044 -5.46331,-0.97541 -7.62779,-2.62481 -2.30151,-1.95078 -3.30977,-4.73449 -3.30977,-11.3814 l 0,-20.19284 c -0.005,-18.00087 6.61405,-22.73536 10.93206,-23.60117 m 383.0989,0 c 0.48224,4.90986 4.69065,8.35112 9.60592,8.35112 6.10448,0 9.8471,-5.4907 9.8471,-10.80603 0,-7.4908 -5.95645,-11.37043 -12.08823,-11.37043 -6.88255,0 -14.14322,5.18929 -18.3023,12.94859 l -0.42195,0.14238 c -1.26037,-6.89355 -4.603,-12.09381 -11.3869,-12.09381 -1.68779,0 -3.32616,0.29588 -5.29889,0.86581 -5.67706,1.72611 -14.14319,6.17566 -11.0581,14.08839 8.08806,-1.55078 10.92107,1.16171 10.92107,8.19219 l 0,33.47566 c 0,6.64692 -0.82743,9.43062 -3.2056,11.3814 -2.06588,1.6549 -4.43861,2.33982 -5.81407,2.62481 -3.34261,7.21129 3.19473,9.458 19.16261,9.458 15.97346,0 21.3765,-2.24122 18.03384,-9.458 -1.36989,-0.29044 -5.39752,-0.97543 -7.63876,-2.62481 -2.19189,-1.95078 -3.16174,-4.73448 -3.16174,-11.3814 l 0,-20.19281 c 0.005,-18.0009 6.5099,-22.73539 10.806,-23.60119"
   id="path7-1" /><path
   style="fill:#004e9f;fill-opacity:1"
   inkscape:connector-curvature="0"
   d="m 0,71.69097 c 0,36.32514 25.036871,57.83857 52.243746,57.83857 24.47247,0 41.596644,-17.20636 41.596644,-31.53038 0,-7.62779 -4.745457,-13.17326 -10.937565,-13.17326 -6.334535,0 -11.655391,4.2961 -11.655391,11.6773 0,4.71258 2.586451,7.34833 4.460493,9.42512 -3.315221,6.40036 -10.36761,11.66634 -21.310647,11.66634 -18.132408,0 -31.228979,-18.88862 -31.228979,-46.05161 0,-27.19594 12.5157,-46.19962 30.659079,-46.19962 10.943037,0 17.989981,5.3263 21.305202,11.66633 -1.874042,2.15354 -4.46052,4.74546 -4.46052,9.49639 0,7.34282 5.326328,11.65536 11.66089,11.65536 6.192108,0 10.932039,-5.59479 10.932039,-13.23902 0,-14.25826 -17.124119,-31.52486 -41.596617,-31.52486 C 24.456055,13.39218 0,37.00429 0,71.69097"
   id="path11-4" /><path
   style="fill:#e3000d;fill-opacity:1"
   inkscape:connector-curvature="0"
   d="M 831.61171,5.3533398 766.26206,68.57401 c -3.26394,2.77146 -5.34838,6.02592 -5.34838,10.68255 0,4.6355 2.08686,7.9017 5.34838,10.69425 l 65.34965,63.19958 c 0.41969,0.42907 0.82535,0.60025 1.17004,0.60025 0.61904,0 1.04575,-0.56274 1.02691,-1.22395 -0.019,-0.38922 -0.18756,-0.83708 -0.5745,-1.22394 -15.33915,-19.05789 -26.49996,-40.91538 -26.49996,-71.81641 0,-30.91981 11.16081,-53.20638 26.49996,-72.2783202 0.387,-0.3822 0.55583,-0.82298 0.5745,-1.2216 0.0191,-0.67528 -0.40787,-1.2216 -1.02691,-1.2216 -0.34469,-0.008 -0.75035,0.1617 -1.17004,0.58852"
   id="path15-9" /><path
   style="fill:#004e9f;fill-opacity:1"
   inkscape:connector-curvature="0"
   d="m 881.852,3.5978516e-4 c -25.58796,0 -35.58576,36.26106021484 -35.58576,79.48127021484 0,43.23429 9.9978,79.01237 35.58576,79.01237 15.35559,0 28.44383,-8.99201 28.48594,-16.38256 0,-1.61787 -0.61661,-3.16773 -1.97416,-4.52062 -7.27804,-7.03181 -10.12449,-14.05894 -10.14575,-20.26071 -0.0463,-11.83849 10.22295,-20.65698 19.69094,-20.65698 13.01564,0 20.69216,10.23002 20.69216,23.47768 0,12.55362 -5.34822,23.00872 -11.16784,31.38172 -0.22976,0.34232 -0.33288,0.72453 -0.33288,1.0598 0,0.65652 0.39162,1.19582 0.97075,1.19582 0.35153,0 0.76422,-0.18756 1.21439,-0.64011 L 994.65181,89.94847 C 997.91556,87.15826 1000,83.88972 1000,79.25419 c 0,-4.65426 -2.08684,-7.91107 -5.34819,-10.68252 L 929.28555,5.3509998 c -0.44778,-0.44784 -0.86047,-0.63774 -1.21439,-0.63774 -0.58392,0 -0.96612,0.54395 -0.97075,1.20282 0,0.33764 0.10345,0.71516 0.33288,1.06216 5.81723,8.3612702 11.16784,18.8281002 11.16784,31.3723302 0,13.23829 -7.67652,23.47769 -20.69216,23.47769 -9.46799,0 -19.73768,-8.81148 -19.69094,-20.65231 0.0191,-6.20177 2.86771,-13.23592 10.14575,-20.2607 1.35755,-1.35995 1.98119,-2.89573 1.97416,-4.51592 C 910.29544,8.9970498 897.20759,3.5978516e-4 881.852,3.5978516e-4"
   id="path17-4" /></svg>