<?xml version="1.0" encoding="UTF-8" standalone="no"?>
<!-- Created with Inkscape (http://www.inkscape.org/) -->

<svg
   width="433.30032mm"
   height="102.36246mm"
   viewBox="0 0 433.30033 102.36247"
   version="1.1"
   id="svg5"
   xml:space="preserve"
   xmlns="http://www.w3.org/2000/svg"
   xmlns:svg="http://www.w3.org/2000/svg"><defs
     id="defs2"><clipPath
       clipPathUnits="userSpaceOnUse"
       id="clipPath12122"><path
         d="m 1051.654,28.346 h 110.551 v 110.551 h -110.551 z"
         id="path12124" /></clipPath></defs><g
     id="layer1"
     transform="translate(111.68409,-195.58815)"><g
       id="g12120"
       clip-path="url(#clipPath12122)"
       transform="matrix(4.5850432,0,0,-4.5850432,-4970.2728,449.7614)"><g
         id="g12126"
         transform="translate(1147.9764,45.6773)"><path
           d="m 0,0 c 1.557,0 2.47,-1.114 2.47,-2.428 0,-1.356 -0.913,-2.39 -2.47,-2.39 -1.57,0 -2.483,1.034 -2.483,2.39 C -2.483,-1.114 -1.57,0 0,0 M 2.349,-7.757 H 6.187 V 2.899 9.556 H 2.349 V 1.892 c -0.806,0.94 -2.121,1.396 -3.369,1.396 -3.221,0 -5.436,-2.617 -5.436,-5.69 0,-3.06 2.255,-5.704 5.476,-5.704 1.275,0 2.604,0.47 3.275,1.53 H 2.349 Z M -15.261,2.94 h -3.852 v -10.657 -0.04 h 3.852 v 5.543 c 0,1.341 0.444,2.483 2.014,2.483 1.906,0 1.731,-1.799 1.731,-2.819 v -5.207 h 3.852 v 6.603 c 0,2.631 -1.167,4.442 -4.08,4.442 -1.503,0 -2.59,-0.429 -3.476,-1.731 h -0.041 z m -5.731,0 h -3.852 V 1.892 c -0.791,0.94 -2.107,1.396 -3.355,1.396 -3.222,0 -5.436,-2.617 -5.436,-5.69 0,-3.06 2.255,-5.704 5.476,-5.704 1.275,0 2.603,0.47 3.275,1.53 h 0.04 v -1.181 h 3.852 V 2.899 Z M -27.179,0 c 1.557,0 2.47,-1.114 2.47,-2.428 0,-1.356 -0.913,-2.39 -2.47,-2.39 -1.571,0 -2.484,1.034 -2.484,2.39 0,1.314 0.913,2.428 2.484,2.428 m -7.517,9.556 h -3.852 v -10.67 -6.643 h 3.852 V 2.899 Z m -7.14,-9.744 h 2.698 V 2.94 h -2.698 v 1.731 c 0,1.208 0.349,1.799 1.342,1.799 0.497,0 0.899,-0.175 1.356,-0.363 v 3.275 c -0.537,0.282 -1.061,0.376 -1.651,0.376 -1.463,0 -2.846,-0.604 -3.799,-1.705 -1.047,-1.194 -1.1,-2.281 -1.1,-3.758 V 2.94 h -1.343 v -3.128 h 1.343 v -7.569 h 3.852 z M -59.392,2.94 v -6.443 c 0,-3.529 2.523,-4.603 5.785,-4.603 3.248,0 5.771,1.074 5.771,4.603 V 2.94 h -3.852 v -5.718 c 0,-1.355 -0.335,-2.322 -1.919,-2.322 -1.597,0 -1.933,0.967 -1.933,2.322 V 2.94 Z m -1.812,0 h -3.852 V 1.892 c -0.792,0.94 -2.107,1.396 -3.355,1.396 -3.222,0 -5.436,-2.617 -5.436,-5.69 0,-3.06 2.255,-5.704 5.476,-5.704 1.275,0 2.604,0.47 3.274,1.53 h 0.041 v -1.181 h 3.852 V 2.899 Z M -67.391,0 c 1.557,0 2.469,-1.114 2.469,-2.428 0,-1.356 -0.912,-2.39 -2.469,-2.39 -1.571,0 -2.483,1.034 -2.483,2.39 0,1.314 0.912,2.428 2.483,2.428 m -16.536,1.853 h -0.054 v 6.764 h -4.335 V -2.51 -7.784 h 4.335 v 7.114 h 0.054 l 5.597,-7.114 h 5.597 l -7.208,8.63 6.631,7.771 h -5.383 z"
           style="fill:#e3000f;fill-opacity:1;fill-rule:evenodd;stroke:none"
           id="path12128" /></g><path
         d="m 1059.688,35.512 h 94.368 V 33.11 h -94.368 z"
         style="fill:#e3000f;fill-opacity:1;fill-rule:evenodd;stroke:none"
         id="path12130" /></g></g></svg>
