<svg xmlns="http://www.w3.org/2000/svg" viewBox="0 0 164.29 53.57"><defs><style>.cls-1{fill:#e92028;}.cls-2{fill:#fff;}</style></defs><g id="Layer_2" data-name="Layer 2"><g id="Layer_1-2" data-name="Layer 1"><path class="cls-1" d="M26.79,52.18a25.4,25.4,0,1,1,0-50.79H137.51a25.4,25.4,0,0,1,0,50.79Z"/><path class="cls-2" d="M137.51,2.79a24,24,0,0,1,0,48H26.79a24,24,0,1,1,0-48H137.51m0-2.79H26.79a26.79,26.79,0,1,0,0,53.57H137.51a26.79,26.79,0,0,0,0-53.57"/><path class="cls-2" d="M19.92,39.72V12H30.3C37.63,12,45,13.09,45,22.66c0,9-6,11.76-15.65,11.94v8.67H22.6c-1.76,0-2.68-1.23-2.68-3.41M30.48,18.59H29.32v9.79c5.14-.35,6.26-1.7,6.26-5.54,0-3.45-1.48-4.25-5.1-4.25"/><path class="cls-2" d="M64.19,43.27l-.71-4.51c-.58-3.58-1.43-5.64-2.77-6.84l-2.78.17V43.27H51.32c-2.78,0-2.78-3.55-2.78-3.55V12H59.36C65.85,12,74,12.42,74,21.36,74,25.92,72,28.87,69,30c2.15,1.34,3.18,4.11,3.85,6.79l1.61,6.53Zm-5-25.22H57.93v8.28a14.69,14.69,0,0,0,4.83-.72c1.21-.54,2-1.61,2-3.84,0-3.05-1.34-3.72-5.59-3.72"/><path class="cls-2" d="M90.58,43.72c-6.67,0-13.87-2.24-13.87-16.1,0-14.08,7.7-16.1,13.87-16.1,6.52,0,13.86,2.42,13.86,16.1,0,14.45-7.78,16.1-13.86,16.1m0-25.71c-3.49,0-4.48,2.82-4.48,9.61s.94,9.62,4.48,9.62c3.35,0,4.47-2.42,4.47-9.62,0-6.53-.9-9.61-4.47-9.61"/><path class="cls-2" d="M131.75,18.9H118.34v5.37h8.86v6.62h-8.86V43.27h-6.66c-2.77,0-2.77-3.55-2.77-3.55V12h22.85Z"/><path class="cls-2" d="M137.66,43.27c-2.77,0-2.77-3.55-2.77-3.55V12h6.7c2.78,0,2.78,3,2.78,3V43.27Z"/></g></g></svg>